/* XPM */
static char * back24_xpm[] = {
"24 24 122 2",
"  	c None",
". 	c #005200",
"+ 	c #086308",
"@ 	c #087300",
"# 	c #087B00",
"$ 	c #108400",
"% 	c #109408",
"& 	c #109C08",
"* 	c #10A508",
"= 	c #188408",
"- 	c #18AD08",
"; 	c #18B508",
"> 	c #18BD08",
", 	c #218408",
"' 	c #21AD08",
") 	c #21B508",
"! 	c #21B510",
"~ 	c #21BD08",
"{ 	c #29B510",
"] 	c #29BD10",
"^ 	c #31A510",
"/ 	c #31B510",
"( 	c #31BD10",
"_ 	c #31BD18",
": 	c #399C18",
"< 	c #39BD18",
"[ 	c #39BD21",
"} 	c #42A521",
"| 	c #42AD18",
"1 	c #42B518",
"2 	c #42B529",
"3 	c #42BD18",
"4 	c #42BD21",
"5 	c #42BD29",
"6 	c #42C618",
"7 	c #4AA521",
"8 	c #4AAD21",
"9 	c #4ABD21",
"0 	c #4ABD29",
"a 	c #4AC621",
"b 	c #4AC639",
"c 	c #52BD21",
"d 	c #52BD29",
"e 	c #52C621",
"f 	c #52C631",
"g 	c #52C639",
"h 	c #52C642",
"i 	c #5ABD29",
"j 	c #5ABD39",
"k 	c #5AC629",
"l 	c #5AC631",
"m 	c #63BD29",
"n 	c #63BD39",
"o 	c #63BD42",
"p 	c #63C629",
"q 	c #63C639",
"r 	c #63CE4A",
"s 	c #6BC631",
"t 	c #6BC639",
"u 	c #6BC642",
"v 	c #6BC64A",
"w 	c #6BCE39",
"x 	c #6BCE42",
"y 	c #6BCE52",
"z 	c #6BCE5A",
"A 	c #73C639",
"B 	c #73C642",
"C 	c #73C652",
"D 	c #73CE42",
"E 	c #73CE4A",
"F 	c #73CE5A",
"G 	c #7BCE42",
"H 	c #7BCE4A",
"I 	c #7BCE5A",
"J 	c #7BCE63",
"K 	c #7BD663",
"L 	c #84CE52",
"M 	c #84CE5A",
"N 	c #84D663",
"O 	c #84D66B",
"P 	c #8CD65A",
"Q 	c #8CD663",
"R 	c #94D663",
"S 	c #94D66B",
"T 	c #94D673",
"U 	c #94DE8C",
"V 	c #9CD673",
"W 	c #9CDE7B",
"X 	c #A5DE84",
"Y 	c #A5DE8C",
"Z 	c #A5DE94",
"` 	c #ADDE84",
" .	c #ADDE8C",
"..	c #ADDE94",
"+.	c #ADE7A5",
"@.	c #B5E794",
"#.	c #B5E79C",
"$.	c #B5E7A5",
"%.	c #B5E7AD",
"&.	c #BDE79C",
"*.	c #BDE7AD",
"=.	c #BDE7B5",
"-.	c #C6E7AD",
";.	c #C6EFAD",
">.	c #C6EFB5",
",.	c #CEEFB5",
"'.	c #CEEFBD",
").	c #CEEFC6",
"!.	c #D6EFBD",
"~.	c #D6EFC6",
"{.	c #D6EFCE",
"].	c #DEEFCE",
"^.	c #DEF7CE",
"/.	c #DEF7D6",
"(.	c #E7F7D6",
"_.	c #E7F7DE",
":.	c #E7F7E7",
"<.	c #EFF7E7",
"[.	c #EFFFEF",
"}.	c #F7FFF7",
"|.	c #FF00FF",
"1.	c #FFFFFF",
"                ; - ; - ; - ; -                 ",
"            ; - j I S T Q I n } = =             ",
"        ; - v X -.~.).'.-.&.Y R B : , =         ",
"      ; 2 T ,./.].-.#.X V V T S L t 8 = =       ",
"    ; 2 X ~.].-.V M B s t s t t n i k | = +     ",
"    ; T ~.{. .L L L L L H C B m k 9 4 4 ^ +     ",
"  ; C -.~.X L L L L ..1.1.T u i c 9 4 < _ = .   ",
"  ; X '.` B L L L '.1.1.1.#.u 9 9 4 1 / { ! .   ",
"; o &.#.L L L L '.1.1.1._.F n 9 4 1 _ { ! ) # . ",
"; M #.S L L L '.1.1.1.'.v q j f 0 5 4 [ - ; % . ",
"; M X H H M ].1.1.1.$.J J N J J F z z b - ; ' . ",
"; M Q A A _.1.1.1.1.:.}.1.1.1.1.1.1.1.<.; - ; . ",
"; H H s t 1.1.1.1.1.1.1.1.1.1.1.1.1.1.1.- ; - . ",
"- t A m s Y 1.1.1.1.:.).~.).).).).).).+.- ; - . ",
"; m s m p m Y 1.1.1.Y r 2 [ [ { { ! ! - ; ; & . ",
"; 7 s d i d ) =.1.1.<.).h < / - ; - ; - ; ) = . ",
"  = k d 9 d ) ! %.1.1.1.{.h { - ; - ; - ; - .   ",
"  = } 9 4 3 ' ! ' %.1.1.1.U ! - ; - ; ; ; % .   ",
"    = 4 < / ! ) - ! +.1.[.b ! - ; - ; ; - .     ",
"    = , < { { ! ; ' ; - - - ; - ; - ; ; @ .     ",
"      = = { ; ; - ; - ; ; - ; - ; ; - @ .       ",
"        + + - ; ; ; ; - ; ; ; ; ; * . .         ",
"            + . & - ; ; ; ; - % . .             ",
"                . . . . . . . .                 "};
