/* XPM */
static char * forward24_xpm[] = {
"24 24 119 2",
"  	c None",
". 	c #005200",
"+ 	c #086308",
"@ 	c #087300",
"# 	c #087B00",
"$ 	c #108400",
"% 	c #109408",
"& 	c #109C08",
"* 	c #10A508",
"= 	c #188408",
"- 	c #18AD08",
"; 	c #18B508",
"> 	c #18BD08",
", 	c #218408",
"' 	c #21AD08",
") 	c #21B508",
"! 	c #21BD08",
"~ 	c #29B510",
"{ 	c #29BD10",
"] 	c #31A510",
"^ 	c #31B510",
"/ 	c #31BD10",
"( 	c #31BD18",
"_ 	c #399C18",
": 	c #39BD18",
"< 	c #39BD21",
"[ 	c #39BD29",
"} 	c #42A521",
"| 	c #42AD18",
"1 	c #42B518",
"2 	c #42B529",
"3 	c #42BD18",
"4 	c #42BD21",
"5 	c #42C618",
"6 	c #4AA521",
"7 	c #4AAD21",
"8 	c #4ABD21",
"9 	c #4ABD29",
"0 	c #4AC621",
"a 	c #4AC629",
"b 	c #52BD21",
"c 	c #52BD29",
"d 	c #52C621",
"e 	c #52C629",
"f 	c #52C631",
"g 	c #52C642",
"h 	c #5ABD29",
"i 	c #5ABD39",
"j 	c #5AC629",
"k 	c #5AC631",
"l 	c #5AC642",
"m 	c #63BD29",
"n 	c #63BD39",
"o 	c #63BD42",
"p 	c #63C629",
"q 	c #63C639",
"r 	c #6BC631",
"s 	c #6BC639",
"t 	c #6BC642",
"u 	c #6BC64A",
"v 	c #6BCE39",
"w 	c #6BCE42",
"x 	c #73C639",
"y 	c #73C642",
"z 	c #73C652",
"A 	c #73CE42",
"B 	c #73CE4A",
"C 	c #73D66B",
"D 	c #7BCE42",
"E 	c #7BCE4A",
"F 	c #7BCE52",
"G 	c #7BCE5A",
"H 	c #7BD663",
"I 	c #84CE52",
"J 	c #84CE5A",
"K 	c #84D65A",
"L 	c #8CD663",
"M 	c #8CD66B",
"N 	c #94D663",
"O 	c #94D66B",
"P 	c #94D673",
"Q 	c #94DE84",
"R 	c #9CD673",
"S 	c #9CD67B",
"T 	c #9CDE7B",
"U 	c #9CDE8C",
"V 	c #A5DE84",
"W 	c #A5DE8C",
"X 	c #ADDE84",
"Y 	c #ADDE8C",
"Z 	c #ADE7A5",
"` 	c #B5E794",
" .	c #B5E79C",
"..	c #B5E7A5",
"+.	c #BDE79C",
"@.	c #BDE7A5",
"#.	c #BDE7AD",
"$.	c #C6E7AD",
"%.	c #C6EFAD",
"&.	c #C6EFB5",
"*.	c #C6EFBD",
"=.	c #CEEFB5",
"-.	c #CEEFBD",
";.	c #CEEFC6",
">.	c #CEEFCE",
",.	c #D6EFBD",
"'.	c #D6EFC6",
").	c #D6EFCE",
"!.	c #D6F7CE",
"~.	c #D6F7D6",
"{.	c #DEEFCE",
"].	c #DEF7CE",
"^.	c #DEF7D6",
"/.	c #E7F7D6",
"(.	c #E7F7E7",
"_.	c #EFFFEF",
":.	c #F7FFF7",
"<.	c #FF00FF",
"[.	c #FFFFFF",
"                ; - ; - ; - ; -                 ",
"            ; - i G M P L J n } = =             ",
"        ; - u V $.'.'.-.$.+.W N y _ = ,         ",
"      ; 2 P =.^.{.$. .S S R P O I s 7 = =       ",
"    ; 2 V '.{.$.S I y x r s r s n k c | = +     ",
"    ; P '.).Y I I F I F E z y m h 8 8 4 ] +     ",
"  ; z $.'.V I F I I F S [.[.W h b 8 4 : ( = .   ",
"  ; V -.X y I I F I E ..[.[.[.#.8 4 1 ^ ~ ~ .   ",
"; o @. .F I I I E z E J (.[.[.[...1 ( ~ ~ ; # . ",
"; J  .O I I F F E y y t t *.[.[.[.#.< < - ; % . ",
"; J V E E N S S P S M M H G Z [.[.[.;.2 ; ; ' . ",
"; J L x x :.[.[.[.[.[.[.[.:.(.[.[.[.[.).; - - . ",
"; E E r s [.[.[.[.[.[.[.[.[.[.[.[.[.[.[.- ; ; . ",
"- s x m r *.{.).).).).;.'.;.(.[.[.[.[.C - ; - . ",
"; m r m m p t n k i 9 9 4 l Q [.[.[.C - - ; & . ",
"; 6 r c h c b k f c 9 [ l *.(.[.[.Z - ; - ) = . ",
"  = j c 8 c h c c 9 [ l ).[.[.[.Z - - ; ; ; .   ",
"  = } 8 4 3 3 4 ^ [ < U [.[.[.Z - ; - ; ; % .   ",
"    = 4 : ^ ) - ) ' ( g _.[.Z - - ; ; ; - .     ",
"    = , : ~ ~ ) ; ' ; - - ; - ; - ; - ; @ .     ",
"      = = ~ ; ; - ; - ; - ; - ; - ; ; @ .       ",
"        + + - ; ; ; ; ; - ; ; ; ; * . .         ",
"            + . & - ; ; ; ; - % . .             ",
"                . . . . . . . .                 "};
