/* XPM */
static char * refresh24_xpm[] = {
"24 24 91 1",
" 	c None",
".	c #007300",
"+	c #218CEF",
"@	c #31A5F7",
"#	c #3994E7",
"$	c #4A5284",
"%	c #4A9CDE",
"&	c #52A5EF",
"*	c #52ADEF",
"=	c #5A5A8C",
"-	c #5A6394",
";	c #5A63A5",
">	c #636394",
",	c #636B9C",
"'	c #6373A5",
")	c #63ADAD",
"!	c #6B6BA5",
"~	c #6B73A5",
"{	c #6B7BAD",
"]	c #6B7BB5",
"^	c #6B84B5",
"/	c #6B84BD",
"(	c #6B8CC6",
"_	c #6B8CCE",
":	c #6BA5DE",
"<	c #6BB5B5",
"[	c #738CC6",
"}	c #7394CE",
"|	c #739CD6",
"1	c #73B5EF",
"2	c #73BDB5",
"3	c #7B94A5",
"4	c #7BBDB5",
"5	c #7BBDE7",
"6	c #7BBDEF",
"7	c #8494A5",
"8	c #84BDE7",
"9	c #84BDEF",
"0	c #84C6EF",
"a	c #8C9CA5",
"b	c #8CC6EF",
"c	c #94B5C6",
"d	c #94B5CE",
"e	c #94C6B5",
"f	c #94C6EF",
"g	c #94CEEF",
"h	c #9CADBD",
"i	c #9CCEB5",
"j	c #9CCEEF",
"k	c #9CCEF7",
"l	c #A5CEEF",
"m	c #A5CEF7",
"n	c #A5D6EF",
"o	c #A5D6F7",
"p	c #ADCEE7",
"q	c #ADD6BD",
"r	c #ADD6F7",
"s	c #B5C6DE",
"t	c #B5D6EF",
"u	c #B5D6F7",
"v	c #B5DEBD",
"w	c #B5DEF7",
"x	c #BDC6DE",
"y	c #BDD6E7",
"z	c #BDD6EF",
"A	c #BDDEF7",
"B	c #C6C6DE",
"C	c #C6D6EF",
"D	c #C6DEEF",
"E	c #C6DEF7",
"F	c #C6E7F7",
"G	c #CED6E7",
"H	c #CEDEF7",
"I	c #CEE7F7",
"J	c #CEE7FF",
"K	c #D6E7F7",
"L	c #D6E7FF",
"M	c #D6EFFF",
"N	c #DEE7F7",
"O	c #DEEFF7",
"P	c #DEEFFF",
"Q	c #E7EFF7",
"R	c #E7EFFF",
"S	c #E7F7FF",
"T	c #EFEFF7",
"U	c #EFF7FF",
"V	c #EFFFFF",
"W	c #F7F7FF",
"X	c #F7FFFF",
"Y	c #FF00FF",
"Z	c #FFFFFF",
"  _____________;!       ",
"  |ZZXZZZXZZZXG-1!      ",
"  |WZZZZZZZZZZB;1&!     ",
"  |WZZZZZZZZWXx-1&@!    ",
"  }WZZZZZZZXTVs;:%#+!   ",
"  }TZZZZZZXUQQy;,;-;-   ",
"  [UZZZZZXWQQKKIyha7$   ",
"  /WZZZZXWQQKKEEzpc3$   ",
"  /TZZZXv...iHE.ttld$   ",
"  ^WZZWv.qKi.e..rllf$   ",
"  {WZXU.qKKEe...lljf$   ",
"  {TZUT.KKHE....ljf8$   ",
"  ~TXQQKKID.....fff8$   ",
"  'QUQKKEDAttllfff88$   ",
"  ,NQNI.....lljff885$   ",
"  ,KOKH....lljf.8855$   ",
"  >HKID...4ljf<.8595$   ",
"  >DIEA..4.<f).)5855$   ",
"  >DEAt.ll2...)58685$   ",
"  -zEttlljff88585558$   ",
"  >tzrlljff885868595$   ",
"  -turljgf0895959505$   ",
"  -=========-==-====$   ",
"                        "};
