/* XPM */
static char * stop24_xpm[] = {
"24 24 109 2",
"  	c None",
". 	c #9C0000",
"+ 	c #A50000",
"@ 	c #A50800",
"# 	c #A51000",
"$ 	c #AD0800",
"% 	c #AD1000",
"& 	c #B50800",
"* 	c #B51000",
"= 	c #B51800",
"- 	c #BD1000",
"; 	c #BD2100",
"> 	c #C62100",
", 	c #C62900",
"' 	c #C63100",
") 	c #CE2100",
"! 	c #CE2900",
"~ 	c #CE3100",
"{ 	c #CE4218",
"] 	c #CE4221",
"^ 	c #D62108",
"/ 	c #D62900",
"( 	c #D62910",
"_ 	c #D63100",
": 	c #D63910",
"< 	c #D65A39",
"[ 	c #D66342",
"} 	c #D67B5A",
"| 	c #DE2900",
"1 	c #DE3100",
"2 	c #DE3110",
"3 	c #DE3910",
"4 	c #DE6B4A",
"5 	c #DE735A",
"6 	c #DE7B5A",
"7 	c #DE8463",
"8 	c #E72100",
"9 	c #E72900",
"0 	c #E73100",
"a 	c #E73908",
"b 	c #E73918",
"c 	c #E74218",
"d 	c #E74A21",
"e 	c #E76342",
"f 	c #E78C73",
"g 	c #E7947B",
"h 	c #EF2100",
"i 	c #EF2900",
"j 	c #EF3100",
"k 	c #EF3908",
"l 	c #EF4A18",
"m 	c #EF5A39",
"n 	c #EF6342",
"o 	c #EF947B",
"p 	c #F72900",
"q 	c #F73100",
"r 	c #F73908",
"s 	c #F74210",
"t 	c #F74218",
"u 	c #F74A21",
"v 	c #F75229",
"w 	c #F75A31",
"x 	c #F77352",
"y 	c #F77B5A",
"z 	c #F7BDAD",
"A 	c #F7C6B5",
"B 	c #F7D6CE",
"C 	c #FF00FF",
"D 	c #FF2900",
"E 	c #FF3100",
"F 	c #FF3108",
"G 	c #FF3900",
"H 	c #FF3908",
"I 	c #FF3910",
"J 	c #FF4210",
"K 	c #FF4218",
"L 	c #FF4A18",
"M 	c #FF4A21",
"N 	c #FF5221",
"O 	c #FF5229",
"P 	c #FF5A29",
"Q 	c #FF6339",
"R 	c #FF6342",
"S 	c #FF6B42",
"T 	c #FF7352",
"U 	c #FF7B5A",
"V 	c #FF7B63",
"W 	c #FF8463",
"X 	c #FF8C6B",
"Y 	c #FF9473",
"Z 	c #FF947B",
"` 	c #FF9C84",
" .	c #FFA58C",
"..	c #FFA594",
"+.	c #FFAD94",
"@.	c #FFAD9C",
"#.	c #FFB5A5",
"$.	c #FFBDAD",
"%.	c #FFC6B5",
"&.	c #FFC6BD",
"*.	c #FFCEBD",
"=.	c #FFCEC6",
"-.	c #FFD6CE",
";.	c #FFDECE",
">.	c #FFEFE7",
",.	c #FFEFEF",
"'.	c #FFF7EF",
").	c #FFF7F7",
"!.	c #FFFFFF",
"                . . . % $ + . .                 ",
"            . * : v Q R Q v c ^ % .             ",
"        . @ c x ` #.z #.@.` W w t / @ .         ",
"      . = w ` &.-.%.@.Z X W V x P s 0 # .       ",
"    . = R ..B %.Z S v t s I s u t k a 1 # .     ",
"    @ w ..-.+.S t r E G q r q j k 0 a 1 _ .     ",
"  . b Z *. .v r N q q r E q j d a 1 1 2 ~ , .   ",
"  * S z  .v F ..'.W p q r 9 n >.z 3 _ _ ~ ' #   ",
". ( X @.S r u !.!.).W i i n >.!.!.[ _ : ' ' = . ",
". u Y X t q E y ).!.!.x m >.!.!.g _ ' ' ' ' ' . ",
". v W R r E q p y ).!.).,.!.!.g ! ' ' ' ' ' ' . ",
"% u S u G q r q i x ,.!.!.).f , ~ ' ' ' ' ' ' # ",
"% s M r r q r 0 9 m >.!.!.).6 > ' ' ' ' ' { ; # ",
". r r F q k j 9 e >.!.!.).!.!.7 ; ' ' ' ' ; ' . ",
". 0 q r j j 9 e >.!.!.f 5 ).!.!.7 ; ' ' { ' ' . ",
". > r j k 0 d ,.!.!.g , ; } ).!.!.[ ' ' ; ' = . ",
"  # j 0 a 1 3 A !.g , ' ' ; } ).B ] ' ' ' ' #   ",
"  . , a 1 _ _ : [ ' ' ' ' ' , [ ] ; ' ' ' ; .   ",
"    @ / : _ ~ ~ ' ' ' ' ' ' ' ' ' ' ' ' ' .     ",
"    . # ~ : ' ' ' ' ' ' ' ' ' ' ' ' ' ' # .     ",
"      . # , ' ' ' ' ' ' ' ' ' ' ' ' ' # .       ",
"        . . ; ' ' ' ' ' ' { ; { ; ; . .         ",
"            . # = ' ' { ; ' ' # # .             ",
"                . . . . # . . .                 "};
