<?xml version="1.0" encoding="iso-8859-1"?>
<!-- Uploaded to: SVG Repo, www.svgrepo.com, Generator: SVG Repo Mixer Tools -->
<svg height="800px" width="800px" version="1.1" id="Layer_1" xmlns="http://www.w3.org/2000/svg" xmlns:xlink="http://www.w3.org/1999/xlink" 
	 viewBox="0 0 371.847 371.847" xml:space="preserve">
<g>
	<path style="fill:#FFFFFF;" d="M59.992,79.128c12.735,2.651,25.665,4.913,38.529,6.723c7.564-21.786,17.648-40.469,29.543-54.756
		C101.366,41.115,78.028,57.794,59.992,79.128z"/>
	<path style="fill:#FFFFFF;" d="M175.644,112.614c-20.816-0.323-41.632-1.616-62.255-4.008c-5.495,20.299-8.986,43.055-9.762,66.909
		h72.016V112.614z"/>
	<path style="fill:#FFFFFF;" d="M175.644,349.738v-70.659c-18.747,0.323-37.495,1.487-56.113,3.491
		C132.784,318.449,152.954,343.726,175.644,349.738z"/>
	<path style="fill:#FFFFFF;" d="M175.644,196.202h-72.016c0.776,23.661,4.202,46.158,9.568,66.198
		c20.816-2.392,41.632-3.685,62.513-4.008v-62.19H175.644z"/>
	<path style="fill:#FFFFFF;" d="M119.79,88.501c18.554,2.004,37.236,3.168,55.855,3.491V21.98
		C153.083,27.928,132.978,52.946,119.79,88.501z"/>
	<path style="fill:#FFFFFF;" d="M21.01,175.515h61.802c0.711-24.954,4.073-48.42,9.568-69.624
		c-15.386-2.263-30.772-5.172-45.899-8.598C31.935,120.178,22.82,146.942,21.01,175.515z"/>
	<path style="fill:#FFFFFF;" d="M128.065,340.623c-11.96-14.481-22.109-33.293-29.737-55.402
		c-12.994,1.875-25.988,4.202-38.788,6.853C77.576,313.665,101.172,330.538,128.065,340.623z"/>
	<path style="fill:#FFFFFF;" d="M92.251,265.115c-5.43-21.01-8.663-44.283-9.374-68.913H21.075
		c1.745,28.38,10.731,54.885,25.018,77.576C61.35,270.287,76.8,267.443,92.251,265.115z"/>
</g>
<g>
	<path style="fill:#56ACE0;" d="M92.251,265.115c-8.145,1.228-16.291,2.586-24.372,4.137
		c-14.869-20.945-24.242-45.964-26.182-73.051h41.18C83.588,220.897,86.95,244.105,92.251,265.115z"/>
	<path style="fill:#56ACE0;" d="M82.812,175.515H41.697c1.939-27.345,11.507-52.622,26.634-73.697
		c8.016,1.487,16.032,2.844,24.048,4.073C86.95,127.031,83.588,150.562,82.812,175.515z"/>
	<path style="fill:#56ACE0;" d="M98.263,285.221c2.651,7.693,5.624,14.998,8.857,21.85c-8.663-5.624-16.679-12.154-23.919-19.523
		C88.242,286.707,93.285,285.932,98.263,285.221z"/>
	<path style="fill:#56ACE0;" d="M98.521,85.851c-4.913-0.711-9.826-1.487-14.739-2.263c7.111-7.111,14.869-13.446,23.337-18.941
		C104.016,71.305,101.107,78.417,98.521,85.851z"/>
	<path style="fill:#56ACE0;" d="M175.644,41.568v50.424c-18.683-0.323-37.301-1.487-55.855-3.491
		c5.818-15.644,12.929-29.22,21.075-40.081C151.919,44.8,163.556,42.408,175.644,41.568z"/>
	<path style="fill:#56ACE0;" d="M113.39,108.606c20.687,2.392,41.503,3.685,62.255,4.008v62.901h-72.016
		C104.404,151.596,107.895,128.905,113.39,108.606z"/>
	<path style="fill:#56ACE0;" d="M103.564,196.202h72.081v62.19c-20.881,0.323-41.697,1.616-62.513,4.008
		C107.701,242.36,104.339,219.863,103.564,196.202z"/>
	<path style="fill:#56ACE0;" d="M119.531,282.505c18.618-2.004,37.301-3.168,56.113-3.491v51.071
		c-12.089-0.84-23.725-3.232-34.844-6.853C132.655,312.307,125.414,298.473,119.531,282.505z"/>
</g>
<path style="fill:#FFC10D;" d="M315.345,160.518c-3.426-17.39-10.15-33.616-20.04-48.291c-2.78-4.073-2.263-9.568,1.228-13.059
	l18.23-18.23L290.78,56.954l-18.166,18.23c-3.491,3.491-8.986,4.008-13.059,1.228c-14.675-9.891-30.901-16.614-48.291-20.04
	c-4.848-0.905-8.339-5.172-8.339-10.149V20.493h-6.659v63.224c51.782,5.172,92.315,49.067,92.315,102.141
	S248.048,282.829,196.267,288v63.16h6.659v-25.729c0-4.913,3.491-9.18,8.339-10.15c17.39-3.426,33.616-10.15,48.291-20.04
	c4.073-2.78,9.568-2.263,13.059,1.228l18.23,18.23l23.984-23.984l-18.23-18.23c-3.491-3.491-4.008-8.986-1.228-13.059
	c9.891-14.675,16.614-30.901,20.04-48.291c0.905-4.848,5.172-8.339,10.15-8.339h25.729v-33.939H325.56
	C320.517,168.922,316.251,165.366,315.345,160.518z"/>
<path style="fill:#194F82;" d="M361.568,148.235H333.77c-3.62-14.222-9.18-27.733-16.679-40.275l19.717-19.717
	c4.396-3.943,3.879-10.99,0-14.61l-38.529-38.529c-4.267-4.655-11.636-3.685-14.61,0l-19.717,19.717
	c-12.606-7.499-26.053-13.059-40.275-16.679V10.344C223.677,4.655,219.022,0,213.333,0h-27.345C83.459,0,0,83.394,0,185.924
	s83.394,185.923,185.923,185.923h27.281c5.689,0,10.343-4.655,10.343-10.343v-27.798c14.222-3.556,27.733-9.18,40.275-16.679
	l19.717,19.717c3.879,3.879,10.731,3.879,14.61,0l38.529-38.529c3.879-4.008,4.267-9.826,0-14.61l-19.653-19.717
	c7.499-12.606,13.059-26.053,16.679-40.275h27.798c5.689,0,10.343-4.655,10.343-10.343v-54.562
	C371.911,152.889,367.257,148.235,361.568,148.235z M351.289,202.796H325.56c-4.913,0-9.18,3.491-10.15,8.339
	c-3.426,17.39-10.15,33.616-20.04,48.291c-2.78,4.073-2.263,9.568,1.228,13.059l18.23,18.23l-23.984,23.984l-18.166-18.295
	c-3.491-3.491-8.986-4.008-13.059-1.228c-14.675,9.891-30.901,16.614-48.291,20.04c-4.848,0.905-8.339,5.172-8.339,10.15v25.729
	h-6.659v-63.16c51.782-5.172,92.315-49.067,92.315-102.141s-40.598-96.97-92.315-102.141v-63.03h6.659v25.729
	c0,4.913,3.491,9.18,8.339,10.149c17.39,3.426,33.616,10.149,48.291,20.04c4.073,2.78,9.568,2.263,13.059-1.228l18.23-18.23
	l23.984,23.984l-18.23,18.23c-3.491,3.491-4.008,8.986-1.228,13.059c9.891,14.675,16.614,30.901,20.04,48.291
	c0.905,4.848,5.172,8.339,10.15,8.339h25.729v33.81H351.289z M113.131,262.465c-5.43-20.105-8.792-42.602-9.568-66.198h72.081v62.19
	C154.764,258.715,133.947,260.073,113.131,262.465z M175.644,279.079v70.723c-22.691-5.947-42.861-31.289-56.113-67.232
	C138.15,280.501,156.897,279.338,175.644,279.079z M103.628,175.515c0.776-23.855,4.267-46.61,9.762-66.909
	c20.687,2.392,41.503,3.685,62.255,4.008v62.901H103.628z M98.521,85.851c-12.929-1.875-25.794-4.073-38.529-6.723
	c18.101-21.333,41.438-38.012,68.073-47.968C116.17,45.382,106.085,64,98.521,85.851z M92.444,105.891
	c-5.495,21.204-8.792,44.671-9.568,69.624H21.01c1.745-28.638,10.925-55.337,25.471-78.222
	C61.737,100.72,77.059,103.564,92.444,105.891z M82.941,196.202c0.711,24.63,4.008,47.903,9.374,68.913
	c-15.451,2.327-30.901,5.172-46.158,8.663c-14.352-22.691-23.337-49.196-25.018-77.576H82.941z M98.263,285.221
	c7.628,22.109,17.778,40.986,29.737,55.402c-26.893-10.15-50.36-26.958-68.525-48.549C72.339,289.423,85.204,287.095,98.263,285.221
	z M175.644,91.992c-18.683-0.323-37.301-1.487-55.855-3.491c13.188-35.556,33.293-60.574,55.855-66.521V91.992z M196.267,267.12
	V104.598c40.339,5.107,71.693,39.564,71.693,81.261S236.671,262.077,196.267,267.12z"/>
</svg>