<?xml version="1.0" encoding="iso-8859-1"?>
<!-- Uploaded to: SVG Repo, www.svgrepo.com, Generator: SVG Repo Mixer Tools -->
<svg height="800px" width="800px" version="1.1" id="Layer_1" xmlns="http://www.w3.org/2000/svg" xmlns:xlink="http://www.w3.org/1999/xlink" 
	 viewBox="0 0 512.122 512.122" xml:space="preserve">
<g transform="translate(1 1)">
	<path style="fill:#FFE100;" d="M502.234,255.122c0,136.828-110.345,247.172-247.172,247.172S7.889,391.95,7.889,255.122
		S118.234,7.95,255.061,7.95S502.234,118.295,502.234,255.122"/>
	<path style="fill:#FDCC00;" d="M378.647,378.708c0,67.972-55.614,123.586-123.586,123.586s-123.586-55.614-123.586-123.586
		s55.614-123.586,123.586-123.586S378.647,310.736,378.647,378.708"/>
	<path style="fill:#63D3FD;" d="M255.061,396.364c-9.71,0-17.655-7.945-17.655-17.655s7.945-17.655,17.655-17.655
		c9.71,0,17.655,7.945,17.655,17.655S264.771,396.364,255.061,396.364L255.061,396.364z M324.799,368.998
		c-14.124-2.648-20.303-19.421-12.359-30.897l6.179-7.945l-12.359-13.241l-7.945,5.297c-12.359,7.945-28.248,0.883-30.897-13.241
		l-1.766-9.71h-18.538l-2.648,12.359c-2.648,14.124-18.538,20.303-30.014,12.359l-10.593-7.062l-13.241,13.241l6.179,7.945
		c8.828,11.476,1.766,28.248-12.359,30.897l-8.828,1.766v18.538l9.71,1.766c14.124,1.766,21.186,18.538,13.241,30.897l-5.297,7.945
		l13.241,13.241l7.945-6.179c11.476-8.828,28.248-1.766,30.897,12.359l1.766,9.71h18.538l0.883-7.062
		c2.648-15.007,19.421-21.186,30.897-13.241l6.179,4.414l13.241-13.241l-5.297-7.945c-7.945-12.359-0.883-28.248,13.241-30.897
		l9.71-1.766v-18.538L324.799,368.998z"/>
	<path style="fill:#FFFFFF;" d="M255.061,7.95c4.414,0,8.828,0,13.241,0C137.654,15.012,34.371,122.708,34.371,255.122
		s103.283,240.11,233.931,247.172c-4.414,0-8.828,0-13.241,0c-136.828,0-247.172-110.345-247.172-247.172S118.234,7.95,255.061,7.95
		"/>
	<path style="fill:#FFA800;" d="M255.061,7.95c-4.414,0-8.828,0-13.241,0c130.648,7.062,233.931,114.759,233.931,247.172
		S372.468,495.233,241.82,502.295c4.414,0,8.828,0,13.241,0c136.828,0,247.172-110.345,247.172-247.172S391.889,7.95,255.061,7.95"
		/>
	<path d="M255.061,263.95c-5.297,0-8.828-3.531-8.828-8.828V7.95c0-5.297,3.531-8.828,8.828-8.828c5.297,0,8.828,3.531,8.828,8.828
		v247.172C263.889,260.419,260.358,263.95,255.061,263.95z"/>
	<path d="M502.234,263.95H7.889c-5.297,0-8.828-3.531-8.828-8.828c0-5.297,3.531-8.828,8.828-8.828h494.345
		c5.297,0,8.828,3.531,8.828,8.828C511.061,260.419,507.53,263.95,502.234,263.95z"/>
	<path d="M255.061,511.122c-141.241,0-256-114.759-256-256s114.759-256,256-256s256,114.759,256,256
		S396.302,511.122,255.061,511.122z M255.061,16.777c-131.531,0-238.345,106.814-238.345,238.345S123.53,493.467,255.061,493.467
		s238.345-106.814,238.345-238.345S386.592,16.777,255.061,16.777z"/>
	<path d="M255.061,149.191c-66.207,0-129.766-19.421-184.497-56.497c-3.531-3.531-4.414-8.828-1.766-12.359
		c2.648-4.414,7.945-5.297,12.359-2.648c51.2,35.31,112.11,53.848,173.903,53.848c62.676,0,122.703-18.538,173.903-53.848
		c4.414-2.648,9.71-1.766,12.359,2.648c2.648,4.414,1.766,9.71-2.648,12.359C384.827,129.77,321.268,149.191,255.061,149.191z"/>
	<path d="M378.647,263.95c-5.297,0-8.828-3.531-8.828-8.828c0-95.338-40.607-182.731-111.228-240.11
		c-3.531-2.648-4.414-8.828-0.883-12.359c2.648-3.531,8.828-4.414,12.359-0.883c74.152,60.028,117.407,152.717,117.407,253.352
		C387.475,260.419,383.944,263.95,378.647,263.95z"/>
	<path d="M131.475,263.95c-5.297,0-8.828-3.531-8.828-8.828c0-100.634,43.255-193.324,118.29-254.234
		c3.531-2.648,9.71-2.648,12.359,0.883s2.648,9.71-0.883,12.359c-71.503,58.262-112.11,145.655-112.11,240.993
		C140.302,260.419,136.771,263.95,131.475,263.95z"/>
	<path d="M255.061,511.122c-73.269,0-132.414-59.145-132.414-132.414s59.145-132.414,132.414-132.414
		s132.414,59.145,132.414,132.414S328.33,511.122,255.061,511.122z M255.061,263.95c-63.559,0-114.759,51.2-114.759,114.759
		s51.2,114.759,114.759,114.759s114.759-51.2,114.759-114.759S318.62,263.95,255.061,263.95z"/>
	<path d="M265.654,466.984h-18.538c-4.414,0-7.945-2.648-8.828-7.062l-1.766-9.71c-0.883-6.179-6.179-8.828-10.593-8.828
		c-2.648,0-4.414,0.883-6.179,1.766l-7.945,6.179c-3.531,2.648-7.945,1.766-11.476-0.883l-13.241-13.241
		c-2.648-2.648-3.531-7.945-0.883-11.476l5.297-7.945c1.766-3.531,2.648-7.062,0.883-10.593c-1.766-3.531-4.414-6.179-7.945-6.179
		l-9.71-1.766c-4.414-0.883-7.062-4.414-7.062-8.828v-18.538c0-4.414,2.648-7.945,7.062-8.828l9.71-1.766
		c3.531-0.883,7.062-3.531,7.945-7.062c1.766-3.531,0.883-7.062-1.766-10.593l-6.179-6.179c-2.648-3.531-2.648-8.828,0.883-11.476
		l13.241-13.241c2.648-2.648,7.945-3.531,11.476-0.883l9.71,7.062c1.766,0.883,3.531,1.766,6.179,1.766
		c4.414,0,9.71-2.648,10.593-8.828l2.648-12.359c0.883-4.414,4.414-7.062,8.828-7.062h18.538c4.414,0,7.945,3.531,8.828,7.062
		l1.766,9.71c1.766,8.828,10.593,11.476,16.772,7.062l7.945-5.297c3.531-2.648,7.945-1.766,11.476,0.883l13.241,13.241
		c2.648,2.648,3.531,7.945,0.883,11.476l-7.945,8.828c-2.648,2.648-2.648,7.062-1.766,10.593c0.883,3.531,4.414,6.179,7.945,7.062
		l9.71,1.766c4.414,0.883,7.062,4.414,7.062,8.828v18.538c0,4.414-3.531,7.945-7.062,8.828l-9.71,0.883
		c-3.531,0.883-7.062,2.648-7.945,6.179c-1.766,3.531-0.883,7.062,0.883,10.593l5.297,7.945c2.648,3.531,1.766,7.945-0.883,11.476
		l-13.241,13.241c-2.648,2.648-7.945,3.531-11.476,0.883l-6.179-4.414c-6.179-4.414-15.89-1.766-16.772,7.062l-0.883,7.062
		C273.599,463.453,270.068,466.984,265.654,466.984z M255.061,449.329h3.531c2.648-14.124,14.124-23.835,28.248-23.835
		c6.179,0,11.476,1.766,16.772,5.297l2.648-2.648l-1.766-1.766c-5.297-7.945-6.179-18.538-2.648-27.366
		c3.531-8.828,12.359-15.007,22.069-16.772h2.648v-3.531l-2.648-0.883c-9.71-1.766-17.655-8.828-21.186-17.655
		c-3.531-8.828-2.648-19.421,3.531-27.366l1.766-1.766l-2.648-2.648l-1.766,1.766c-4.414,3.531-10.593,5.297-15.89,5.297
		c-14.124,0-26.483-10.593-28.248-23.834v-2.648h-4.414l-0.883,5.297c-2.648,13.241-14.124,22.952-28.248,22.952
		c-5.297,0-11.476-1.766-15.89-5.297l-4.414-2.648l-2.648,2.648l1.766,1.766c6.179,7.945,7.062,18.538,3.531,27.365
		c-3.531,8.828-11.476,15.89-21.186,17.655h-2.648v3.531h2.648c9.71,1.766,17.655,7.945,22.069,16.772
		c3.531,8.828,2.648,19.421-2.648,27.366l-1.766,1.766l2.648,2.648l1.766-1.766c5.297-3.531,10.593-5.297,16.772-5.297
		c13.241,0,25.6,9.71,28.248,22.952L255.061,449.329z M255.061,405.191c-15.007,0-26.483-11.476-26.483-26.483
		s11.476-26.483,26.483-26.483s26.483,11.476,26.483,26.483S270.068,405.191,255.061,405.191z M255.061,369.881
		c-5.297,0-8.828,3.531-8.828,8.828s3.531,8.828,8.828,8.828c5.297,0,8.828-3.531,8.828-8.828S260.358,369.881,255.061,369.881z"/>
</g>
</svg>