<?xml version="1.0" encoding="iso-8859-1"?>
<!-- Uploaded to: SVG Repo, www.svgrepo.com, Generator: SVG Repo Mixer Tools -->
<svg version="1.1" id="Layer_1" xmlns="http://www.w3.org/2000/svg" xmlns:xlink="http://www.w3.org/1999/xlink" 
	 viewBox="0 0 512 512" xml:space="preserve">
<g transform="translate(1 1)">
	<path style="fill:#FFE100;" d="M502.467,305.347V204.653c0,0,0-0.853-0.853-0.853h-5.12c-19.627,0-36.693-11.947-43.52-29.013
		l-1.707-2.56c-7.68-17.92-3.413-38.4,10.24-52.053l4.267-4.267v-0.853l-71.68-71.68h-0.853l-4.267,4.267
		C375.32,61.293,354.84,65.56,336.92,57.88l-2.56-0.853c-16.213-6.827-28.16-23.893-28.16-43.52v-5.12c0-0.853,0-0.853-0.853-0.853
		H204.653c-0.853,0-0.853,0-0.853,0.853v5.12c0,19.627-11.947,36.693-29.013,43.52l-2.56,1.707c-17.92,7.68-38.4,3.413-52.053-10.24
		l-4.267-4.267h-0.853l-71.68,71.68v0.853l4.267,4.267c13.653,13.653,17.92,34.133,10.24,52.053l-0.853,2.56
		c-6.827,16.213-23.893,28.16-43.52,28.16h-5.12c-0.853,0-0.853,0-0.853,0.853V306.2c0,0,0,0,0.853,0h5.12
		c19.627,0,36.693,11.947,43.52,29.013l0.853,0.853c7.68,18.773,3.413,40.107-11.093,53.76l-3.413,3.413v0.853l71.68,71.68h0.853
		l3.413-3.413c14.507-14.507,34.987-18.773,53.76-11.093s30.72,25.6,30.72,45.227v4.267c0,0,0,0.853,0.853,0.853H306.2
		c0,0,0.853,0,0.853-0.853v-4.267c0-19.627,11.947-37.547,30.72-45.227c18.773-7.68,40.107-3.413,53.76,11.093l3.413,3.413h0.853
		l71.68-71.68v-0.853l-4.267-4.267c-13.653-13.653-17.92-34.133-10.24-52.053l0.853-2.56c5.973-16.213,23.04-28.16,42.667-28.16
		L502.467,305.347C502.467,306.2,502.467,306.2,502.467,305.347"/>
	<g>
		<path style="fill:#63D3FD;" d="M408.6,255c0-84.48-69.12-153.6-153.6-153.6S101.4,170.52,101.4,255S170.52,408.6,255,408.6
			S408.6,339.48,408.6,255"/>
		<path style="fill:#63D3FD;" d="M323.267,255c0,84.48-30.72,153.6-68.267,153.6s-68.267-69.12-68.267-153.6
			S217.453,101.4,255,101.4S323.267,170.52,323.267,255"/>
	</g>
	<path style="fill:#FFA800;" d="M501.613,206.36h-5.12c-19.627,0-36.693-11.947-43.52-29.013l-1.707-2.56
		c-7.68-17.92-3.413-38.4,10.24-52.053l4.267-4.267v-0.853l-71.68-71.68h-0.853l-3.413,4.267c-2.56,2.56-5.973,5.12-9.387,7.68
		l60.587,60.587v0.853l-4.267,4.267c-13.653,13.653-17.92,34.133-10.24,52.053l0.853,2.56c6.827,16.213,23.893,42.667,43.52,42.667
		h5.12h0.853v68.267c0,0,0,0-0.853,0h-5.12c-19.627,0-36.693,30.72-43.52,48.64l-1.707,2.56c-7.68,17.92-3.413,38.4,10.24,52.053
		l4.267,4.267v0.853l-60.587,60.587c4.267,2.56,7.68,5.12,11.093,7.68l3.413,3.413h0.853l71.68-71.68v-0.853l-4.267-5.12
		c-13.653-13.653-17.92-34.133-10.24-52.053l0.853-2.56c7.68-17.92,24.747-29.013,43.52-29.013h5.12c0,0,0.853,0,0.853-0.853
		L501.613,206.36C502.467,206.36,502.467,206.36,501.613,206.36"/>
	<path style="fill:#FFFFFF;" d="M8.387,206.36h5.12c19.627,0,36.693-11.947,43.52-29.013l1.707-2.56
		c7.68-17.92,3.413-38.4-10.24-52.053l-4.267-4.267v-0.853l71.68-71.68h0.853l3.413,4.267c2.56,2.56,5.973,5.12,9.387,7.68
		l-59.733,60.587v0.853l4.267,4.267c13.653,13.653,17.92,34.133,10.24,52.053l-0.853,2.56c-7.68,16.213-24.747,42.667-44.373,42.667
		h-5.12c-0.853,0-0.853,0-0.853,0v68.267c0,0,0,0,0.853,0h5.12c19.627,0,36.693,30.72,43.52,48.64l1.707,2.56
		c7.68,17.92,3.413,38.4-10.24,52.053l-4.267,4.267v0.853l60.587,60.587c-4.267,2.56-7.68,5.12-11.093,7.68l-2.56,2.56h-0.853
		l-71.68-71.68V395.8l3.413-4.267C61.293,377.88,65.56,357.4,57.88,339.48l-0.853-2.56c-6.827-17.067-23.893-28.16-43.52-28.16
		h-5.12c0,0-0.853,0-0.853-0.853L8.387,206.36C7.533,206.36,7.533,206.36,8.387,206.36"/>
	<path d="M305.347,511H204.653c-5.12,0-9.387-4.267-9.387-9.387v-4.267c0-16.213-10.24-31.573-24.747-37.547
		c-15.36-5.973-33.28-2.56-44.373,8.533l-3.413,3.413c-3.413,3.413-9.387,3.413-12.8,0l-71.68-71.68
		c-3.413-3.413-3.413-9.387,0-12.8l3.413-3.413c11.947-11.947,15.36-29.013,8.533-44.373l-0.853-0.853
		c-5.973-14.507-19.627-23.893-35.84-23.893h-5.12c-5.12,0-9.387-4.267-9.387-9.387V204.653c0-5.12,4.267-9.387,9.387-9.387h5.12
		c16.213,0,29.867-9.387,35.84-23.893l0.853-2.56c5.973-14.507,2.56-31.573-8.533-42.667L37.4,121.88
		c-1.707-1.707-2.56-4.267-2.56-5.973c0-2.56,0.853-5.12,2.56-5.973l72.533-71.68c3.413-3.413,9.387-3.413,12.8,0l3.413,3.413
		c11.093,11.093,28.16,14.507,42.667,8.533l2.56-0.853c14.507-5.973,23.893-19.627,23.893-35.84v-5.12
		c0-5.12,4.267-9.387,9.387-9.387H306.2c4.267,0,8.533,4.267,8.533,9.387v5.12c0,16.213,9.387,29.867,23.893,35.84l2.56,0.853
		c14.507,5.973,31.573,2.56,42.667-8.533l4.267-4.267c3.413-3.413,9.387-3.413,12.8,0l71.68,71.68
		c1.707,1.707,2.56,4.267,2.56,5.973c0,2.56-0.853,5.12-2.56,6.827l-4.267,4.267c-11.093,11.093-14.507,28.16-8.533,42.667
		l0.853,2.56c5.973,14.507,20.48,23.893,35.84,23.893h5.12c5.12,0,9.387,4.267,9.387,9.387V306.2c0,5.12-4.267,9.387-9.387,9.387
		h-5.12c-16.213,0-29.867,9.387-35.84,23.893l-0.853,1.707c-5.973,14.507-2.56,31.573,8.533,42.667l4.267,4.267
		c1.707,1.707,2.56,4.267,2.56,6.827c0,2.56-0.853,5.12-2.56,6.827l-72.533,69.973c-3.413,3.413-9.387,3.413-12.8,0l-3.413-3.413
		c-11.947-11.093-29.013-15.36-44.373-8.533c-15.36,5.973-24.747,21.333-24.747,37.547v4.267
		C314.733,506.733,310.467,511,305.347,511z M212.333,493.933h85.333c1.707-22.187,15.36-40.96,35.84-49.493
		s44.373-4.267,60.587,10.24l60.587-60.587c-14.507-16.213-18.773-39.253-10.24-58.88l0.853-2.56
		c8.533-20.48,27.307-33.28,49.493-34.133v-86.187c-21.333-0.853-40.96-14.507-49.493-34.133l-0.853-2.56
		c-8.533-20.48-4.267-43.52,10.24-58.88l-60.587-60.587c-15.36,14.507-39.253,18.773-58.88,10.24l-2.56-0.853
		c-20.48-8.533-33.28-27.307-34.133-49.493h-86.187C211.48,37.4,197.827,57.027,178.2,65.56l-2.56,0.853
		c-19.627,8.533-43.52,4.267-58.88-10.24L56.173,116.76c14.507,16.213,18.773,39.253,10.24,58.88l-0.853,2.56
		c-8.533,20.48-27.307,33.28-49.493,34.133v85.333C37.4,298.52,57.027,312.173,65.56,331.8l0.853,0.853
		c8.533,20.48,4.267,43.52-10.24,60.587l60.587,60.587c16.213-14.507,40.107-17.92,60.587-10.24
		C196.973,452.973,210.627,471.747,212.333,493.933z"/>
	<path d="M255,417.133C165.4,417.133,92.867,344.6,92.867,255S165.4,92.867,255,92.867S417.133,165.4,417.133,255
		S344.6,417.133,255,417.133z M255,109.933c-80.213,0-145.067,64.853-145.067,145.067S174.787,400.067,255,400.067
		S400.067,335.213,400.067,255S335.213,109.933,255,109.933z"/>
	<path d="M255,417.133c-42.667,0-76.8-70.827-76.8-162.133S212.333,92.867,255,92.867S331.8,163.693,331.8,255
		S297.667,417.133,255,417.133z M255,109.933c-29.013,0-59.733,58.027-59.733,145.067S225.987,400.067,255,400.067
		S314.733,342.04,314.733,255S284.013,109.933,255,109.933z"/>
	<rect x="101.4" y="246.467" width="315.733" height="17.067"/>
	<rect x="246.467" y="101.4" width="17.067" height="307.2"/>
</g>
</svg>