<?xml version="1.0" encoding="utf-8"?>

<!DOCTYPE svg PUBLIC "-//W3C//DTD SVG 1.1//EN" "http://www.w3.org/Graphics/SVG/1.1/DTD/svg11.dtd">
<!-- Uploaded to: SVG Repo, www.svgrepo.com, Generator: SVG Repo Mixer Tools -->
<svg height="800px" width="800px" version="1.1" id="_x32_" xmlns="http://www.w3.org/2000/svg" xmlns:xlink="http://www.w3.org/1999/xlink" 
	 viewBox="0 0 512 512"  xml:space="preserve">
<style type="text/css">
	.st0{fill:#000000;}
</style>
<g>
	<path class="st0" d="M253.39,252.844c67.84,0,122.858-54.508,122.858-121.732c0-67.232-55.019-121.731-122.858-121.731
		c-67.858,0-122.858,54.499-122.858,121.731C130.532,198.336,185.533,252.844,253.39,252.844z"/>
	<path class="st0" d="M279.385,369.018c-11.782,0-21.838,7.282-25.994,17.576c-4.174-10.294-14.213-17.576-26.013-17.576
		c-15.516,0-28.09,12.584-28.09,28.099c0,15.516,12.574,28.099,28.09,28.099c11.8,0,21.839-7.282,26.013-17.576
		c4.156,10.294,14.213,17.576,25.994,17.576c15.516,0,28.108-12.583,28.108-28.099C307.493,381.602,294.901,369.018,279.385,369.018
		z"/>
	<path class="st0" d="M2.583,195.993l52.148,61.165c12.152,14.265,28.566,24.251,46.848,28.478l86.014,19.928
		c-0.37,1.646-0.616,3.319-0.758,5.019l-56.215,2.343c-21.927,0.915-42.709,10.03-58.225,25.554l-55.494,55.493
		c-4.226,4.228-4.226,11.079,0,15.305c4.227,4.228,11.078,4.228,15.305,0L87.7,353.784c11.676-11.685,27.316-18.545,43.818-19.232
		l59.879-2.492c0.405,0.757,0.845,1.498,1.303,2.237l-59.703,36.606l-0.669,0.58c-14.917,12.901-25.026,30.442-28.724,49.814
		l-13.032,68.474c-1.127,5.873,2.73,11.536,8.594,12.654c5.882,1.118,11.536-2.729,12.663-8.603l13.033-68.474
		c2.747-14.38,10.214-27.394,21.204-37.072l62.169-38.112c11.887,8.137,27.72,13.139,45.156,13.139
		c18.633,0,35.47-5.689,47.586-14.847l64.97,39.82c10.972,9.678,18.457,22.692,21.186,37.072l13.051,68.474
		c1.109,5.874,6.78,9.722,12.644,8.603c5.883-1.118,9.722-6.781,8.612-12.654l-13.05-68.474
		c-3.681-19.372-13.807-36.914-28.706-49.814l-0.67-0.572l-63.577-38.974c0.017-0.035,0.035-0.062,0.052-0.097l64.986,2.712
		c16.502,0.687,32.142,7.546,43.836,19.232l55.494,55.494c4.226,4.228,11.078,4.228,15.304,0c4.227-4.226,4.227-11.077,0-15.305
		l-55.494-55.493c-15.533-15.525-36.315-24.639-58.241-25.554l-61.447-2.563c-0.106-1.224-0.282-2.439-0.511-3.636l91.016-21.09
		c18.263-4.227,34.677-14.213,46.847-28.478l52.131-61.165c3.875-4.544,3.346-11.377-1.216-15.252
		c-4.544-3.875-11.377-3.337-15.252,1.216l-52.13,61.165c-9.158,10.734-21.522,18.245-35.259,21.433l-92.056,21.328
		c-1.321,0.299-2.466,0.899-3.522,1.603c-1.444-1.709-2.976-3.364-4.667-4.914l83.215-57.449
		c15.252-10.515,26.77-25.625,32.881-43.114L460.82,69.356c1.973-5.644-1.004-11.817-6.64-13.789
		c-5.654-1.973-11.818,1.004-13.79,6.639l-39.415,112.652c-4.597,13.174-13.262,24.542-24.745,32.459l-87.511,60.408
		c-1.092,0.758-1.938,1.726-2.66,2.765c-9.668-4.042-20.799-6.375-32.669-6.375c-10.355,0-20.113,1.796-28.848,4.922
		c-0.441-0.432-0.74-0.951-1.268-1.312l-87.495-60.408c-11.482-7.917-20.147-19.285-24.762-32.459L71.621,62.207
		c-1.973-5.636-8.154-8.612-13.79-6.639c-5.636,1.972-8.612,8.145-6.639,13.789l39.397,112.653
		c6.129,17.489,17.646,32.599,32.898,43.122l80.327,55.451c-2.008,1.655-3.927,3.382-5.618,5.23l-91.738-21.257
		c-13.755-3.188-26.118-10.699-35.259-21.433L19.05,181.957c-3.875-4.545-10.708-5.09-15.252-1.216
		C-0.745,184.616-1.29,191.449,2.583,195.993z"/>
</g>
</svg>